<?xml version="1.0" encoding="utf-8"?>
<svg width="34px" height="33px" viewBox="0 0 34 33" version="1.1" xmlns:xlink="http://www.w3.org/1999/xlink" xmlns="http://www.w3.org/2000/svg">
  <g id="7">
    <path d="M26.0666 22.0249C26.0666 26.2644 22.5364 29.7004 18.1784 29.7004L15.8204 29.7004C11.4636 29.7004 7.93219 26.2644 7.93219 22.0261L7.93219 14.2735C7.93219 10.0352 11.4636 6.60048 15.8204 6.60048L18.1796 6.60048C22.5364 6.60048 26.0666 10.0352 26.0666 14.2735L26.0666 22.0261L26.0666 22.0249ZM32.6629 9.90012L34 9.90012L34 5.43143C34 2.10405 31.791 0 28.3635 0L5.63777 0C2.20895 0 0 2.10405 0 5.43143L0 9.90012L1.33587 9.90012C3.83178 9.90012 5.66707 11.9969 5.66707 14.3037L5.66707 18.6951C5.66707 21.0031 3.83178 23.0999 1.33587 23.0999L2.71136e-16 23.0999L2.71136e-16 27.5686C2.71136e-16 30.896 2.21017 33 5.63777 33L28.3622 33C31.7898 33 33.9988 30.896 33.9988 27.5686L33.9988 23.0987L32.6629 23.0987C30.167 23.0987 28.3329 21.0019 28.3329 18.6951L28.3329 14.3037C28.3329 11.9969 30.167 9.90012 32.6629 9.90012L32.6629 9.90012Z" id="Fill-4" fill="#FFFFFF" stroke="none" />
    <path d="M13.7134 11.0479C13.7134 13.3668 11.2113 15.4736 8.69201 15.4736L7.30676 15.4736C4.78867 15.4736 2.28536 13.3668 2.28536 11.0491L2.28536 6.63675C2.28536 4.31783 4.78867 2.21104 7.30676 2.21104L8.69201 2.21104C11.2113 2.21104 13.7134 4.31783 13.7134 6.63553L13.7134 11.0479ZM9.19193 0L6.66523 0C2.99954 0 0 3.23413 0 6.77979L0 14.2202C0 17.7659 2.99954 21 6.66523 21L9.19193 21C12.8564 21 16 17.7659 16 14.2202L16 6.781C16 3.23534 12.8564 0.00121219 9.1907 0.00121219L9.19193 0Z" transform="translate(9 8)" id="Fill-6" fill="#FFFFFF" stroke="none" />
    <path d="M4.46386 4.91407L4.34105 4.91407C2.66415 4.91407 1.09589 3.94602 1.09589 2.22306L1.09589 0.595356C1.09589 0.595356 1.09353 0 0.543222 0C-0.00472298 0 6.87191e-07 0.595356 6.87191e-07 0.595356L6.87191e-07 2.22306C6.87191e-07 4.54257 2.06306 6 4.34105 6L4.46386 6C4.46386 6 5 5.99166 5 5.46775C5 4.94146 4.46386 4.91407 4.46386 4.91407" transform="translate(12 16)" id="Fill-8" fill="#FFFFFF" fill-rule="evenodd" stroke="none" />
  </g>
</svg>