<?xml version="1.0" encoding="utf-8"?>
<svg width="139px" height="29px" viewBox="0 0 139 29" version="1.1" xmlns:xlink="http://www.w3.org/1999/xlink" xmlns="http://www.w3.org/2000/svg">
  <g id="logo">
    <g id="logo">
      <path d="M21.347 18.256C21.347 21.77 18.456 24.618 14.887 24.618L12.956 24.618C9.388 24.618 6.496 21.77 6.496 18.257L6.496 11.831C6.496 8.318 9.388 5.471 12.956 5.471L14.888 5.471C18.456 5.471 21.347 8.318 21.347 11.831L21.347 18.257L21.347 18.256ZM26.749 8.206L27.844 8.206L27.844 4.502C27.844 1.744 26.035 0 23.228 0L4.617 0C1.809 0 0 1.744 0 4.502L0 8.206L1.094 8.206C3.138 8.206 4.641 9.944 4.641 11.856L4.641 15.496C4.641 17.409 3.138 19.147 1.094 19.147L2.22045e-16 19.147L2.22045e-16 22.851C2.22045e-16 25.609 1.81 27.353 4.617 27.353L23.227 27.353C26.034 27.353 27.843 25.609 27.843 22.851L27.843 19.146L26.749 19.146C24.705 19.146 23.203 17.408 23.203 15.496L23.203 11.856C23.203 9.944 24.705 8.206 26.749 8.206L26.749 8.206Z" transform="translate(0.856 0.824)" id="Fill-4" fill="#FFFFFF" stroke="none" />
      <path d="M11.137 9.114C11.137 11.027 9.105 12.765 7.059 12.765L5.934 12.765C3.889 12.765 1.856 11.027 1.856 9.115L1.856 5.475C1.856 3.562 3.889 1.824 5.934 1.824L7.059 1.824C9.105 1.824 11.137 3.562 11.137 5.474L11.137 9.114ZM7.465 0L5.413 0C2.436 0 0 2.668 0 5.593L0 11.731C0 14.656 2.436 17.324 5.413 17.324L7.465 17.324C10.441 17.324 12.994 14.656 12.994 11.731L12.994 5.594C12.994 2.669 10.441 0.001 7.464 0.001L7.465 0Z" transform="translate(8.281 7.206)" id="Fill-6" fill="#FFFFFF" stroke="none" />
      <path d="M3.78 4.127L3.676 4.127C2.256 4.127 0.928001 3.314 0.928001 1.867L0.928001 0.5C0.928001 0.5 0.926001 0 0.460001 0C-0.00399942 0 5.81913e-07 0.5 5.81913e-07 0.5L5.81913e-07 1.867C5.81913e-07 3.815 1.747 5.039 3.676 5.039L3.78 5.039C3.78 5.039 4.234 5.032 4.234 4.592C4.234 4.15 3.78 4.127 3.78 4.127" transform="translate(11.065999 14.02)" id="Fill-8" fill="#FFFFFF" fill-rule="evenodd" stroke="none" />
      <path d="M3.454 8.877C4.391 8.877 5.126 8.624 5.661 8.12C6.195 7.615 6.463 6.91 6.463 6.001L6.463 5.119L4.958 5.181C3.762 5.222 2.9 5.405 2.371 5.729C1.843 6.052 1.578 6.555 1.578 7.239C1.578 7.773 1.742 8.179 2.072 8.459C2.402 8.737 2.862 8.877 3.454 8.877L3.454 8.877ZM6.853 9.919L6.553 8.529L6.481 8.529C5.987 9.14 5.491 9.554 4.999 9.771C4.507 9.988 3.893 10.097 3.155 10.097C2.17 10.097 1.398 9.847 0.839 9.349C0.281 8.85 0 8.14 0 7.221C0 5.249 1.605 4.217 4.813 4.121L6.499 4.069L6.499 3.464C6.499 2.698 6.332 2.132 5.996 1.767C5.661 1.402 5.126 1.22 4.387 1.22C3.56 1.22 2.623 1.469 1.578 1.967L1.115 0.837C1.62474 0.567474 2.16538 0.360957 2.725 0.222C3.29778 0.075138 3.88669 0.000558115 4.478 0C5.663 0 6.54 0.258 7.111 0.774C7.682 1.291 7.967 2.119 7.967 3.258L7.967 9.918L6.854 9.918L6.853 9.919Z" transform="translate(40.516 9.967)" id="Fill-10" fill="#FFFFFF" stroke="none" />
      <path d="M3.77 9.76L0 1.77636e-15L1.613 1.77636e-15L3.751 5.789C4.235 7.142 4.519 8.019 4.603 8.424L4.677 8.424C4.743 8.108 4.952 7.458 5.306 6.47C5.66 5.482 6.453 3.324 7.686 0L9.299 0L5.529 9.76L3.769 9.76L3.77 9.76Z" transform="translate(49.896 10.126)" id="Fill-12" fill="#FFFFFF" fill-rule="evenodd" stroke="none" />
      <path d="M0.125 13.3825L1.63 13.3825L1.63 3.62449L0.125 3.62449L0.125 13.3825ZM0 0.980493C0 0.641493 0.084 0.392493 0.253 0.236493C0.425454 0.0774774 0.653552 -0.00729604 0.888 0.000492947C1.128 0.000492947 1.338 0.0804929 1.513 0.240493C1.688 0.400493 1.776 0.647493 1.776 0.980493C1.776 1.31149 1.688 1.55849 1.513 1.72349C1.34481 1.88389 1.12039 1.97186 0.888 1.96849C0.651982 1.97564 0.423053 1.88731 0.253 1.72349C0.083 1.55849 0 1.31149 0 0.980493L0 0.980493Z" transform="translate(60.59 6.502507)" id="Fill-14" fill="#FFFFFF" stroke="none" />
      <path d="M3.454 8.877C4.392 8.877 5.127 8.624 5.661 8.12C6.196 7.615 6.463 6.91 6.463 6.001L6.463 5.119L4.959 5.181C3.762 5.222 2.9 5.405 2.371 5.729C1.843 6.052 1.578 6.555 1.578 7.239C1.578 7.773 1.743 8.179 2.072 8.459C2.402 8.737 2.862 8.877 3.454 8.877L3.454 8.877ZM6.853 9.919L6.554 8.529L6.482 8.529C5.987 9.14 5.492 9.554 4.999 9.771C4.508 9.988 3.893 10.097 3.155 10.097C2.171 10.097 1.398 9.847 0.84 9.349C0.281 8.85 0 8.14 0 7.221C0 5.249 1.605 4.217 4.814 4.121L6.499 4.069L6.499 3.464C6.499 2.698 6.332 2.132 5.996 1.767C5.661 1.402 5.126 1.22 4.388 1.22C3.56 1.22 2.624 1.469 1.578 1.967L1.115 0.837C1.62474 0.567474 2.16538 0.360957 2.725 0.222C3.2981 0.0750552 3.88736 0.000474639 4.479 0C5.663 0 6.54 0.258 7.111 0.774C7.683 1.291 7.968 2.119 7.968 3.258L7.968 9.918L6.853 9.918L6.853 9.919Z" transform="translate(64.592 9.967)" id="Fill-16" fill="#FFFFFF" stroke="none" />
      <path d="M7.042 7.275C7.042 8.183 6.698 8.884 6.009 9.377C5.32 9.869 4.353 10.115 3.109 10.115C1.791 10.115 0.763 9.911 0.026 9.501L0.026 8.129C0.503 8.367 1.016 8.553 1.563 8.691C2.08006 8.82317 2.61133 8.89167 3.145 8.895C3.929 8.895 4.535 8.772 4.957 8.526C5.38 8.28 5.592 7.903 5.592 7.4C5.592 7.02 5.424 6.694 5.089 6.424C4.753 6.154 4.099 5.835 3.126 5.468C2.202 5.128 1.545 4.833 1.155 4.582C0.765 4.329 0.475 4.043 0.285 3.722C0.095 3.402 0 3.019 0 2.574C0 1.778 0.329 1.15 0.988 0.69C1.646 0.23 2.549 0 3.698 0C4.768 0 5.812 0.214 6.833 0.642L6.299 1.844C5.302 1.44 4.398 1.238 3.589 1.238C2.876 1.238 2.339 1.348 1.975 1.568C1.613 1.786 1.432 2.09 1.432 2.476C1.432 2.736 1.499 2.96 1.636 3.144C1.771 3.327 1.99 3.502 2.293 3.669C2.594 3.835 3.175 4.075 4.033 4.39C5.211 4.812 6.007 5.236 6.421 5.663C6.834 6.091 7.042 6.628 7.042 7.275" transform="translate(74.933 9.948)" id="Fill-17" fill="#FFFFFF" fill-rule="evenodd" stroke="none" />
      <path d="M3.454 8.877C4.391 8.877 5.126 8.624 5.661 8.12C6.195 7.615 6.463 6.91 6.463 6.001L6.463 5.119L4.958 5.181C3.762 5.222 2.9 5.405 2.371 5.729C1.843 6.052 1.578 6.555 1.578 7.239C1.578 7.773 1.742 8.179 2.072 8.459C2.402 8.737 2.862 8.877 3.454 8.877L3.454 8.877ZM6.852 9.919L6.554 8.529L6.481 8.529C5.986 9.14 5.491 9.554 4.999 9.771C4.507 9.988 3.893 10.097 3.155 10.097C2.17 10.097 1.398 9.847 0.839 9.349C0.281 8.85 0 8.14 0 7.221C0 5.249 1.605 4.217 4.813 4.121L6.499 4.069L6.499 3.464C6.499 2.698 6.332 2.132 5.996 1.767C5.661 1.402 5.126 1.22 4.387 1.22C3.56 1.22 2.623 1.469 1.578 1.967L1.115 0.837C1.62474 0.567474 2.16538 0.360957 2.725 0.222C3.29778 0.075138 3.88669 0.000558115 4.478 0C5.663 0 6.54 0.258 7.11 0.774C7.682 1.291 7.967 2.119 7.967 3.258L7.967 9.918L6.852 9.918L6.852 9.919Z" transform="translate(83.585 9.967)" id="Fill-18" fill="#FFFFFF" stroke="none" />
      <path d="M0 13.854L1.504 13.854L1.504 0L0 0L0 13.854Z" transform="translate(94.56 6.031)" id="Fill-19" fill="#FFFFFF" fill-rule="evenodd" stroke="none" />
      <path d="M4.342 1.237C3.545 1.237 2.908 1.492 2.434 2.003C1.959 2.513 1.68 3.219 1.596 4.123L6.789 4.123C6.789 3.19 6.577 2.475 6.154 1.98C5.731 1.484 5.127 1.237 4.342 1.237M4.749 10.114C3.281 10.114 2.122 9.674 1.273 8.797C0.424 7.917 0 6.697 0 5.137C0 3.564 0.395 2.315 1.183 1.389C1.971 0.462 3.03 0 4.36 0C5.604 0 6.59 0.401 7.314 1.206C8.039 2.01 8.402 3.072 8.402 4.389L8.402 5.324L1.559 5.324C1.589 6.469 1.884 7.339 2.443 7.934C3.002 8.526 3.789 8.824 4.804 8.824C5.89488 8.81877 6.97357 8.59433 7.976 8.164L7.976 9.482C7.49015 9.69283 6.98471 9.85528 6.467 9.967C5.992 10.066 5.42 10.114 4.749 10.114" transform="translate(98.627 9.949)" id="Fill-20" fill="#FFFFFF" stroke="none" />
      <path d="M7.043 7.275C7.043 8.183 6.698 8.884 6.01 9.377C5.321 9.869 4.355 10.115 3.11 10.115C1.792 10.115 0.765 9.911 0.027 9.501L0.027 8.129C0.505 8.367 1.017 8.553 1.564 8.691C2.08107 8.82311 2.61233 8.89161 3.146 8.895C3.931 8.895 4.536 8.772 4.958 8.526C5.381 8.28 5.593 7.903 5.593 7.4C5.593 7.02 5.425 6.694 5.09 6.424C4.754 6.154 4.1 5.835 3.127 5.468C2.203 5.128 1.546 4.833 1.156 4.582C0.766 4.329 0.476 4.043 0.286 3.722C0.096 3.402 0 3.019 0 2.574C0 1.778 0.33 1.15 0.989 0.69C1.648 0.23 2.551 0 3.698 0C4.768 0 5.814 0.214 6.834 0.642L6.299 1.844C5.303 1.44 4.399 1.238 3.589 1.238C2.877 1.238 2.339 1.348 1.976 1.568C1.613 1.786 1.432 2.09 1.432 2.476C1.432 2.736 1.5 2.96 1.637 3.144C1.772 3.327 1.992 3.502 2.294 3.669C2.596 3.835 3.176 4.075 4.034 4.39C5.212 4.812 6.009 5.236 6.422 5.663C6.836 6.091 7.042 6.628 7.042 7.275" transform="translate(108.866 9.948)" id="Fill-21" fill="#FFFFFF" fill-rule="evenodd" stroke="none" />
      <path d="M0 1.211C0 0.812 0.093 0.511 0.277 0.307C0.461 0.102 0.725 0 1.069 0C1.419 0 1.694 0.102 1.889 0.307C2.086 0.511 2.185 0.812 2.185 1.211C2.185 1.596 2.085 1.893 1.885 2.101C1.685 2.308 1.413 2.412 1.069 2.412C0.761 2.412 0.507 2.319 0.303 2.132C0.101 1.946 0 1.638 0 1.211" transform="translate(118.046 17.731)" id="Fill-22" fill="#FFFFFF" fill-rule="evenodd" stroke="none" />
      <path d="M4.531 0.000325088C4.9292 -0.00382027 5.32683 0.0316882 5.718 0.106325L5.511 1.47833C5.15403 1.3958 4.78934 1.35122 4.423 1.34533C3.619 1.34533 2.931 1.66533 2.361 2.30533C1.79 2.94633 1.504 3.74533 1.504 4.70132L1.504 9.93633L0 9.93633L0 0.177325L1.241 0.177325L1.414 1.98533L1.486 1.98533C1.854 1.34933 2.298 0.859325 2.818 0.515325C3.32427 0.175414 3.92122 -0.00405454 4.531 0.000325088" transform="translate(123.111 9.948675)" id="Fill-23" fill="#FFFFFF" fill-rule="evenodd" stroke="none" />
      <path d="M1.523 0L1.523 6.33C1.523 7.125 1.708 7.72 2.076 8.11C2.445 8.503 3.022 8.699 3.807 8.699C4.847 8.699 5.607 8.419 6.087 7.862C6.567 7.304 6.807 6.393 6.807 5.128L6.807 1.77636e-15L8.311 1.77636e-15L8.311 9.758L7.071 9.758L6.853 8.45L6.771 8.45C6.463 8.93 6.036 9.298 5.488 9.554C4.942 9.808 4.318 9.936 3.618 9.936C2.408 9.936 1.504 9.654 0.902 9.091C0.302 8.527 0 7.624 0 6.384L0 1.77636e-15L1.523 0Z" transform="translate(130.485 10.127)" id="Fill-24" fill="#FFFFFF" fill-rule="evenodd" stroke="none" />
    </g>
  </g>
</svg>