<?xml version="1.0" encoding="utf-8"?>
<svg width="1881px" height="998px" viewBox="0 0 1881 998" version="1.1" xmlns:xlink="http://www.w3.org/1999/xlink" xmlns="http://www.w3.org/2000/svg">
  <defs>
    <path d="M109 0C109 0 89.13 146.71 86.7137 214.009C86.5439 218.737 78 217 78 226C78 235 86.0732 236.049 86 240C84 348 109 509 109 509C109 509 46 546 30 542C20 530 0 524 0 542C5.85672e-16 560 25 566 30 564C35 562 50 576 73 570C96 564 112 557 121 561C130 565 142 572 157 564C172 556 156 525 149 509C142 493 116 356 116 270C116 184 149 0 149 0L109 0Z" id="path_1" />
    <path d="M0 0L22 -4.80267e-08L22 22L4.80267e-08 22L0 0Z" transform="matrix(1 -2.1830324E-09 2.1830324E-09 1 0.0007324219 0)" id="path_2" />
    <path d="M0 0L22 -4.80267e-08L22 22L4.80267e-08 22L0 0Z" transform="matrix(1 -2.1830324E-09 2.1830324E-09 1 0.0012207031 38)" id="path_3" />
    <path d="M0 0L22 -4.80267e-08L22 22L4.80267e-08 22L0 0Z" transform="matrix(1 -2.1830324E-09 2.1830324E-09 1 0 76.00073)" id="path_4" />
    <path d="M0 0L22 -4.80267e-08L22 22L4.80267e-08 22L0 0Z" transform="matrix(1 -2.1830324E-09 2.1830324E-09 1 0.00024414062 114.000244)" id="path_5" />
    <path d="M81.0803 -4.87064e-08C81.0803 -4.87064e-08 78.1856 124.589 77.2294 191.913C77.1768 195.615 72.2072 193.73 69.6823 202.875C67.1574 212.019 76.549 213.94 76.4823 217.539C74.4823 325.539 106.83 491.326 106.83 491.326C106.83 491.326 45.0326 539.458 29.0326 535.458C16.0505 536.138 4.5224 526.35 0.861673 532.929C-2.79905 539.507 5.24784 559.3 24.1719 551.652C33.2095 557.834 44.1719 563.652 67.1719 557.652C90.1719 551.652 107.96 546.877 116.96 550.877C125.96 554.877 136.172 559.652 151.172 551.652C166.172 543.652 160.535 522.506 143.172 496.652C125.809 470.799 115.518 341.852 115.518 255.852C115.518 169.852 133.271 2.27168 133.271 2.27168L81.0803 -4.87064e-08Z" transform="matrix(-0.9986295 0.05233596 0.05233596 0.9986295 159.61768 -1.1444092E-05)" id="path_6" />
    <path d="M13 0L0 116C0 116 36.3962 127 67.4661 130C98.536 133 137.595 130 137.595 130C137.595 130 158.013 70.5 215.714 72.5C273.415 74.5 290.282 136 290.282 136C290.282 136 321.352 145 353.309 145C385.267 145 419 130 419 130L406 0L13 0Z" id="path_7" />
    <rect width="1881" height="998" id="artboard_1" />
    <clipPath id="clip_1">
      <use xlink:href="#artboard_1" clip-rule="evenodd" />
    </clipPath>
    <clipPath id="clip_2">
      <use xlink:href="#path_2" />
    </clipPath>
    <clipPath id="clip_3">
      <use xlink:href="#path_3" />
    </clipPath>
    <clipPath id="clip_4">
      <use xlink:href="#path_4" />
    </clipPath>
    <clipPath id="clip_5">
      <use xlink:href="#path_5" />
    </clipPath>
    <clipPath id="mask_1">
      <use xlink:href="#path_1" />
    </clipPath>
    <clipPath id="mask_2">
      <use xlink:href="#path_6" />
    </clipPath>
    <clipPath id="mask_3">
      <use xlink:href="#path_7" />
    </clipPath>
  </defs>
  <g id="final" clip-path="url(#clip_1)">
    <path d="M0 0L1998 0L1998 402L0 402L0 0Z" transform="translate(-108 634)" id="ground" fill="#D78DA4" fill-rule="evenodd" stroke="none" />
    <g id="man" transform="translate(533.1511 -119.88318)">
      <path d="M88.796 6C55.9536 6 -9.73122 5.01389 1.21625 18.0139C12.1637 31.0139 87 43 176 24C265 5 425.807 23.8075 455 30C484.193 36.1925 621.573 32 617.923 19C614.274 6 524.385 0 413.571 0C302.756 0 121.638 6 88.796 6Z" transform="translate(81.44409 760.9999)" id="shadow" fill="#CD718E" fill-rule="evenodd" stroke="none" />
      <g id="leg_left" transform="translate(93.44409 210)">
        <g id="leg">
          <path d="M109 0C109 0 89.13 146.71 86.7137 214.009C86.5439 218.737 78 217 78 226C78 235 86.0732 236.049 86 240C84 348 109 509 109 509C109 509 46 546 30 542C20 530 0 524 0 542C5.85672e-16 560 25 566 30 564C35 562 50 576 73 570C96 564 112 557 121 561C130 565 142 572 157 564C172 556 156 525 149 509C142 493 116 356 116 270C116 184 149 0 149 0L109 0Z" id="Mask" fill="#E1B2A1" fill-rule="evenodd" stroke="none" />
          <g clip-path="url(#mask_1)">
            <path d="M0 0L58 0C58 0 81 45 53 59C25 73 0 52 0 52L0 0Z" transform="translate(95 -14)" id="Rectangle-2" fill="#CC9B8A" fill-rule="evenodd" stroke="none" />
            <path d="M5 0L29 26L48 118L0 148L5 0Z" transform="translate(58 129)" id="Rectangle-5" fill="#CC9B8A" fill-rule="evenodd" stroke="none" />
            <path d="M0.932641 29.0999C4.93264 39.0999 27.9326 52.0999 46.9326 52.0999C54.9326 57.0999 74.9326 65.0999 95.9326 54.0999C116.933 43.0999 134 29.0999 134 29.0999C134 29.0999 153 35.0999 161 29.0999C169 23.0999 166 4.09992 166 4.09992C166 4.09992 179.13 -0.750174 180 0.0999236C192.761 12.569 179.081 25.9793 195.933 29.0999C222.933 34.0999 211.933 63.0999 187.933 70.0999C163.933 77.0999 78.9326 87.0999 41.9326 77.0999C4.93264 67.0999 -3.06736 19.0999 0.932641 29.0999Z" transform="translate(-17 503.8999)" id="Path-3" fill="#CC9B8A" fill-rule="evenodd" stroke="none" />
          </g>
        </g>
        <g id="hairs" transform="translate(84.04199 33.537354)">
          <path d="M2.24488 5.0179e-09C2.24488 5.0179e-09 -0.882166 12.7182 0.24488 13C1.37193 13.2818 6.24488 1 6.24488 1L2.24488 5.0179e-09Z" transform="matrix(0.9781476 0.2079117 -0.2079117 0.9781476 7.7148438 335.47388)" id="Path-11" fill="#9D796C" fill-rule="evenodd" stroke="none" />
          <path d="M2.24488 6.10402e-05C2.24488 6.10402e-05 -0.882166 12.7183 0.24488 13.0001C1.37193 13.2818 6.24488 1.00006 6.24488 1.00006L2.24488 6.10402e-05Z" transform="matrix(0.9781476 0.2079117 -0.2079117 0.9781476 10.714844 62.749756)" id="Path-11-Copy-20" fill="#9D796C" fill-rule="evenodd" stroke="none" />
          <path d="M2.24488 1.6887e-08C2.24488 1.6887e-08 -0.882166 12.7182 0.24488 13C1.37193 13.2818 6.24488 1 6.24488 1L2.24488 1.6887e-08Z" transform="matrix(0.76604444 -0.6427876 0.6427876 0.76604444 20.999512 213.47742)" id="Path-11-Copy-10" fill="#9D796C" fill-rule="evenodd" stroke="none" />
          <path d="M2.49836 -1.34044e-07C2.49836 -1.34044e-07 -0.897989 15.8652 0.229057 16.147C1.3561 16.4287 6.49836 1 6.49836 1L2.49836 -1.34044e-07Z" transform="matrix(0.99026805 -0.1391731 0.1391731 0.99026805 24.010742 368.3673)" id="Path-11-Copy" fill="#9D796C" fill-rule="evenodd" stroke="none" />
          <path d="M2.49824 -0.000244141C2.49824 -0.000244141 -0.898112 15.865 0.228934 16.1467C1.35598 16.4285 6.49824 0.999756 6.49824 0.999756L2.49824 -0.000244141Z" transform="matrix(0.70710677 -0.70710677 0.70710677 0.70710677 35.334473 104.48413)" id="Path-11-Copy-22" fill="#9D796C" fill-rule="evenodd" stroke="none" />
          <path d="M2.49836 -1.34044e-07C2.49836 -1.34044e-07 -0.897989 15.8652 0.229057 16.147C1.3561 16.4287 6.49836 1 6.49836 1L2.49836 -1.34044e-07Z" transform="matrix(0.99026805 -0.1391731 0.1391731 0.99026805 4.01001 229.36707)" id="Path-11-Copy-11" fill="#9D796C" fill-rule="evenodd" stroke="none" />
          <path d="M2.49849 0C2.49849 0 -0.897868 15.8652 0.229178 16.147C1.35622 16.4287 6.49849 1 6.49849 1L2.49849 0Z" transform="matrix(0.7547096 -0.656059 0.656059 0.7547096 50.99829 451.72705)" id="Path-11-Copy-5" fill="#9D796C" fill-rule="evenodd" stroke="none" />
          <path d="M2.49836 0C2.49836 0 -0.89799 15.8652 0.229056 16.147C1.3561 16.4287 6.49836 1 6.49836 1L2.49836 0Z" transform="matrix(0.7547096 -0.656059 0.656059 0.7547096 50.99756 10.983643)" id="Path-11-Copy-24" fill="#9D796C" fill-rule="evenodd" stroke="none" />
          <path d="M2.49849 0C2.49849 0 -0.897868 15.8652 0.229178 16.147C1.35622 16.4287 6.49849 1 6.49849 1L2.49849 0Z" transform="matrix(0.7547096 -0.656059 0.656059 0.7547096 30.997803 312.72717)" id="Path-11-Copy-12" fill="#9D796C" fill-rule="evenodd" stroke="none" />
          <path d="M2.49849 0.000244141C2.49849 0.000244141 -0.897868 15.8654 0.229178 16.1472C1.35622 16.429 6.49849 1.00024 6.49849 1.00024L2.49849 0.000244141Z" transform="matrix(0.7547096 -0.656059 0.656059 0.7547096 36.965088 40.406128)" id="Path-11-Copy-25" fill="#9D796C" fill-rule="evenodd" stroke="none" />
          <path d="M2.25672 -2.6279e-07C2.25672 -2.6279e-07 -0.882531 10.0701 0.244515 10.3519C1.37156 10.6336 6.25672 0.999999 6.25672 0.999999L2.25672 -2.6279e-07Z" transform="matrix(0.98162717 -0.190809 0.190809 0.98162717 27.01123 444.65625)" id="Path-11-Copy-6" fill="#9D796C" fill-rule="evenodd" stroke="none" />
          <path d="M2.25647 -2.6279e-07C2.25647 -2.6279e-07 -0.882775 10.0701 0.244271 10.3519C1.37132 10.6336 6.25647 0.999999 6.25647 0.999999L2.25647 -2.6279e-07Z" transform="matrix(0.98162717 -0.190809 0.190809 0.98162717 19.01123 97.65625)" id="Path-11-Copy-26" fill="#9D796C" fill-rule="evenodd" stroke="none" />
          <path d="M2.25647 0.000243878C2.25647 0.000243878 -0.882775 10.0704 0.244271 10.3521C1.37132 10.6339 6.25647 1.00024 6.25647 1.00024L2.25647 0.000243878Z" transform="matrix(0.98162717 -0.190809 0.190809 0.98162717 7.0112305 305.65674)" id="Path-11-Copy-13" fill="#9D796C" fill-rule="evenodd" stroke="none" />
          <path d="M1.63638 -3.24249e-05C1.63638 -3.24249e-05 -0.640576 7.30401 0.176892 7.50838C0.994359 7.71275 4.53765 0.725286 4.53765 0.725286L1.63638 -3.24249e-05Z" transform="matrix(0.8910065 0.4539905 -0.4539905 0.8910065 16.403809 27.480225)" id="Path-11-Copy-27" fill="#9D796C" fill-rule="evenodd" stroke="none" />
          <path d="M1.85688 -5.66898e-09C1.85688 -5.66898e-09 -0.726375 8.2866 0.201059 8.51845C1.12849 8.75031 5.14844 0.82289 5.14844 0.82289L1.85688 -5.66898e-09Z" transform="matrix(0.9135454 0.40673664 -0.40673664 0.9135454 23.467041 422.48047)" id="Path-11-Copy-7" fill="#9D796C" fill-rule="evenodd" stroke="none" />
          <path d="M1.85663 0C1.85663 0 -0.726619 8.2866 0.200815 8.51845C1.12825 8.75031 5.14819 0.82289 5.14819 0.82289L1.85663 0Z" transform="matrix(0.92050487 -0.39073113 0.39073113 0.92050487 26.016846 152.16711)" id="Path-11-Copy-28" fill="#9D796C" fill-rule="evenodd" stroke="none" />
          <path d="M1.85688 -5.66898e-09C1.85688 -5.66898e-09 -0.726375 8.2866 0.201059 8.51845C1.12849 8.75031 5.14844 0.82289 5.14844 0.82289L1.85688 -5.66898e-09Z" transform="matrix(0.9135454 0.40673664 -0.40673664 0.9135454 3.4667969 283.48083)" id="Path-11-Copy-14" fill="#9D796C" fill-rule="evenodd" stroke="none" />
          <path d="M3.17038 1.52491e-05C3.17038 1.52491e-05 -1.24008 11.0554 0.343353 11.3648C1.92679 11.6741 8.79017 1.09786 8.79017 1.09786L3.17038 1.52491e-05Z" transform="matrix(0.9135454 0.40673664 -0.40673664 0.9135454 16.141357 0)" id="Path-11-Copy-29" fill="#9D796C" fill-rule="evenodd" stroke="none" />
          <path d="M1.67798 0C1.67798 0 -0.602668 10.6535 0.154142 10.8427C0.910953 11.0319 4.36398 0.671499 4.36398 0.671499L1.67798 0Z" transform="matrix(0.9612617 0.27563736 -0.27563736 0.9612617 12.980713 399.47192)" id="Path-11-Copy-2" fill="#9D796C" fill-rule="evenodd" stroke="none" />
          <path d="M1.67749 0.000183105C1.67749 0.000183105 -0.603156 10.6537 0.153654 10.8429C0.910464 11.0321 4.36349 0.671682 4.36349 0.671682L1.67749 0.000183105Z" transform="matrix(0.9612617 0.27563736 -0.27563736 0.9612617 15.980713 124.472046)" id="Path-11-Copy-30" fill="#9D796C" fill-rule="evenodd" stroke="none" />
          <path d="M1.67774 -1.75912e-08C1.67774 -1.75912e-08 -0.602912 10.6535 0.153898 10.8427C0.910709 11.0319 4.36373 0.671499 4.36373 0.671499L1.67774 -1.75912e-08Z" transform="matrix(0.7880108 -0.6156615 0.6156615 0.7880108 29.984863 346.14868)" id="Path-11-Copy-15" fill="#9D796C" fill-rule="evenodd" stroke="none" />
          <path d="M1.67774 -1.75912e-08C1.67774 -1.75912e-08 -0.602912 10.6535 0.153898 10.8427C0.910709 11.0319 4.36373 0.671499 4.36373 0.671499L1.67774 -1.75912e-08Z" transform="matrix(0.7880108 -0.6156615 0.6156615 0.7880108 35.953125 73.82947)" id="Path-11-Copy-31" fill="#9D796C" fill-rule="evenodd" stroke="none" />
          <path d="M0.331217 0C0.331217 0 -0.418655 7.0909 0.338156 7.28011C1.09497 7.46931 2.80502 1.37125 2.80502 1.37125L0.331217 0Z" transform="matrix(0.9612617 0.27563736 -0.27563736 0.9612617 25.006592 466.47388)" id="Path-11-Copy-8" fill="#9D796C" fill-rule="evenodd" stroke="none" />
          <path d="M0.331217 -0.000183105C0.331217 -0.000183105 -0.418655 7.09072 0.338156 7.27992C1.09497 7.46913 2.80502 1.37107 2.80502 1.37107L0.331217 -0.000183105Z" transform="matrix(0.9612617 0.27563736 -0.27563736 0.9612617 23.006836 321.47437)" id="Path-11-Copy-16" fill="#9D796C" fill-rule="evenodd" stroke="none" />
          <path d="M0.331217 -6.10352e-05C0.331217 -6.10352e-05 -0.418655 7.09084 0.338156 7.28005C1.09497 7.46925 2.80502 1.37119 2.80502 1.37119L0.331217 -6.10352e-05Z" transform="matrix(0.9612617 0.27563736 -0.27563736 0.9612617 28.974365 49.15454)" id="Path-11-Copy-32" fill="#9D796C" fill-rule="evenodd" stroke="none" />
          <path d="M0.331156 0.000244137C0.331156 0.000244137 -0.418716 7.09115 0.338095 7.28035C1.0949 7.46955 2.80495 1.37149 2.80495 1.37149L0.331156 0.000244137Z" transform="matrix(0.32556814 -0.94551855 0.94551855 0.32556814 50.972656 432.11475)" id="Path-11-Copy-9" fill="#9D796C" fill-rule="evenodd" stroke="none" />
          <path d="M0.331217 -3.27427e-09C0.331217 -3.27427e-09 -0.418655 7.0909 0.338156 7.28011C1.09497 7.46931 2.80502 1.37125 2.80502 1.37125L0.331217 -3.27427e-09Z" transform="matrix(0.32556814 -0.94551855 0.94551855 0.32556814 29.971924 189.05103)" id="Path-11-Copy-33" fill="#9D796C" fill-rule="evenodd" stroke="none" />
          <path d="M0.331217 -3.27427e-09C0.331217 -3.27427e-09 -0.418655 7.0909 0.338156 7.28011C1.09497 7.46931 2.80502 1.37125 2.80502 1.37125L0.331217 -3.27427e-09Z" transform="matrix(0.32556814 -0.94551855 0.94551855 0.32556814 30.971924 293.115)" id="Path-11-Copy-17" fill="#9D796C" fill-rule="evenodd" stroke="none" />
          <path d="M0.331278 -3.27427e-09C0.331278 -3.27427e-09 -0.418594 7.0909 0.338217 7.28011C1.09503 7.46931 2.80508 1.37125 2.80508 1.37125L0.331278 -3.27427e-09Z" transform="matrix(0.32556814 -0.94551855 0.94551855 0.32556814 36.939453 20.795166)" id="Path-11-Copy-34" fill="#9D796C" fill-rule="evenodd" stroke="none" />
          <path d="M2.53919 0C2.53919 0 -0.640231 14.0498 0.11658 14.239C0.87339 14.4283 5.22518 0.671499 5.22518 0.671499L2.53919 0Z" transform="matrix(0.7431448 -0.6691306 0.6691306 0.7431448 36.979492 402.95898)" id="Path-11-Copy-3" fill="#9D796C" fill-rule="evenodd" stroke="none" />
          <path d="M2.53919 0C2.53919 0 -0.640231 14.0498 0.11658 14.239C0.87339 14.4283 5.22518 0.671499 5.22518 0.671499L2.53919 0Z" transform="matrix(0.7431448 -0.6691306 0.6691306 0.7431448 16.979492 263.95862)" id="Path-11-Copy-18" fill="#9D796C" fill-rule="evenodd" stroke="none" />
          <path d="M2.17688 0C2.17688 0 -0.549152 7.47283 0.099736 7.57346C0.748624 7.6741 4.47985 0.357157 4.47985 0.357157L2.17688 0Z" transform="matrix(0.7431448 -0.6691306 0.6691306 0.7431448 41.976562 379.46033)" id="Path-11-Copy-4" fill="#9D796C" fill-rule="evenodd" stroke="none" />
          <path d="M2.17688 0.000244141C2.17688 0.000244141 -0.549152 7.47308 0.099736 7.57371C0.748624 7.67434 4.47985 0.357401 4.47985 0.357401L2.17688 0.000244141Z" transform="matrix(0.7431448 -0.6691306 0.6691306 0.7431448 21.976562 240.46033)" id="Path-11-Copy-19" fill="#9D796C" fill-rule="evenodd" stroke="none" />
        </g>
      </g>
      <path d="M0 0L163.503 -3.56933e-07L163.503 198.114L4.32488e-07 198.114L0 0Z" transform="matrix(0.9781476 -0.2079117 0.2079117 0.9781476 0 284.99304)" id="Rectangle-3" fill="#FFFFFF" fill-rule="evenodd" stroke="none" />
      <g id="paper_text" transform="matrix(0.9781476 -0.2079117 0.2079117 0.9781476 28.372803 319.93103)">
        <g id="Rectangle-4">
          <g clip-path="url(#clip_2)">
            <use xlink:href="#path_2" fill="none" stroke="#CD718E" stroke-width="8" />
          </g>
        </g>
        <path d="M0 0L83 -1.81192e-07L83 22L4.80267e-08 22L0 0Z" transform="matrix(1 -2.1830324E-09 2.1830324E-09 1 38.001465 0.00048828125)" id="Rectangle-4-Copy-4" fill="#EFE2E2" fill-rule="evenodd" stroke="none" />
        <g id="Rectangle-4-Copy">
          <g clip-path="url(#clip_3)">
            <use xlink:href="#path_3" fill="none" stroke="#CD718E" stroke-width="8" />
          </g>
        </g>
        <path d="M0 0L83 -1.81192e-07L83 22L4.80267e-08 22L0 0Z" transform="matrix(1 -2.1830324E-09 2.1830324E-09 1 38.00171 38.00049)" id="Rectangle-4-Copy-5" fill="#EFE2E2" fill-rule="evenodd" stroke="none" />
        <g id="Rectangle-4-Copy-2">
          <g clip-path="url(#clip_4)">
            <use xlink:href="#path_4" fill="none" stroke="#CD718E" stroke-width="8" />
          </g>
        </g>
        <path d="M0 0L83 -1.81192e-07L83 22L4.80267e-08 22L0 0Z" transform="matrix(1 -2.1830324E-09 2.1830324E-09 1 38.000977 76.00049)" id="Rectangle-4-Copy-6" fill="#EFE2E2" fill-rule="evenodd" stroke="none" />
        <g id="Rectangle-4-Copy-3">
          <g clip-path="url(#clip_5)">
            <use xlink:href="#path_5" fill="none" stroke="#CD718E" stroke-width="8" />
          </g>
        </g>
        <path d="M0 0L83 -1.81192e-07L83 22L4.80267e-08 22L0 0Z" transform="matrix(1 -2.1830324E-09 2.1830324E-09 1 38.001465 114.000244)" id="Rectangle-4-Copy-7" fill="#EFE2E2" fill-rule="evenodd" stroke="none" />
      </g>
      <g id="leg_right" transform="translate(509.7959 219.75732)">
        <g id="l">
          <path d="M81.0803 -4.87064e-08C81.0803 -4.87064e-08 78.1856 124.589 77.2294 191.913C77.1768 195.615 72.2072 193.73 69.6823 202.875C67.1574 212.019 76.549 213.94 76.4823 217.539C74.4823 325.539 106.83 491.326 106.83 491.326C106.83 491.326 45.0326 539.458 29.0326 535.458C16.0505 536.138 4.5224 526.35 0.861673 532.929C-2.79905 539.507 5.24784 559.3 24.1719 551.652C33.2095 557.834 44.1719 563.652 67.1719 557.652C90.1719 551.652 107.96 546.877 116.96 550.877C125.96 554.877 136.172 559.652 151.172 551.652C166.172 543.652 160.535 522.506 143.172 496.652C125.809 470.799 115.518 341.852 115.518 255.852C115.518 169.852 133.271 2.27168 133.271 2.27168L81.0803 -4.87064e-08Z" transform="matrix(-0.9986295 0.05233596 0.05233596 0.9986295 159.61768 -1.1444092E-05)" id="Mask" fill="#E1B2A1" fill-rule="evenodd" stroke="none" />
          <g clip-path="url(#mask_2)">
            <path d="M0 0L58 0C58 0 90 19 65 47C40 75 0 64 0 64L0 0Z" transform="translate(19.648193 -12.757324)" id="Rectangle-2" fill="#CC9B8A" fill-rule="evenodd" stroke="none" />
            <path d="M0.932641 29.0999C4.93264 39.0999 27.9326 52.0999 46.9326 52.0999C54.9326 57.0999 74.9326 65.0999 95.9326 54.0999C116.933 43.0999 134 29.0999 134 29.0999C134 29.0999 153 35.0999 161 29.0999C169 23.0999 166 4.09992 166 4.09992C166 4.09992 179.13 -0.750174 180 0.0999236C192.761 12.569 179.081 25.9793 195.933 29.0999C222.933 34.0999 211.933 63.0999 187.933 70.0999C163.933 77.0999 78.9326 87.0999 41.9326 77.0999C4.93264 67.0999 -3.06736 19.0999 0.932641 29.0999Z" transform="matrix(-1 0 0 1 198.35059 494.14258)" id="Path-3" fill="#CC9B8A" fill-rule="evenodd" stroke="none" />
          </g>
        </g>
        <g id="hairs-copy" transform="matrix(-0.9975641 0.06975647 0.06975647 0.9975641 89.65723 42.311165)">
          <path d="M2.24488 0.000244131C2.24488 0.000244131 -0.882166 12.7185 0.24488 13.0002C1.37193 13.282 6.24488 1.00024 6.24488 1.00024L2.24488 0.000244131Z" transform="matrix(0.9781476 0.20791169 -0.20791169 0.9781476 19.930176 314.2821)" id="Path-11" fill="#9D796C" fill-rule="evenodd" stroke="none" />
          <path d="M2.24512 -9.67868e-09C2.24512 -9.67868e-09 -0.881922 12.7182 0.245124 13C1.37217 13.2818 6.24512 1 6.24512 1L2.24512 -9.67868e-09Z" transform="matrix(0.9781476 0.20791169 -0.20791169 0.9781476 5.3898926 47.185547)" id="Path-11-Copy-20" fill="#9D796C" fill-rule="evenodd" stroke="none" />
          <path d="M2.24488 -0.000366211C2.24488 -0.000366211 -0.882166 12.7179 0.24488 12.9996C1.37193 13.2814 6.24488 0.999634 6.24488 0.999634L2.24488 -0.000366211Z" transform="matrix(0.76604444 -0.6427876 0.6427876 0.76604444 39.334717 195.27332)" id="Path-11-Copy-10" fill="#9D796C" fill-rule="evenodd" stroke="none" />
          <path d="M2.49812 0.000244132C2.49812 0.000244132 -0.898234 15.8654 0.228812 16.1472C1.35586 16.429 6.49812 1.00024 6.49812 1.00024L2.49812 0.000244132Z" transform="matrix(0.99026805 -0.1391731 0.1391731 0.99026805 36.22534 347.1759)" id="Path-11-Copy" fill="#9D796C" fill-rule="evenodd" stroke="none" />
          <path d="M2.49836 -0.000244141C2.49836 -0.000244141 -0.89799 15.865 0.229056 16.1467C1.3561 16.4285 6.49836 0.999756 6.49836 0.999756L2.49836 -0.000244141Z" transform="matrix(0.70710677 -0.70710677 0.70710677 0.70710677 44.488525 97.81384)" id="Path-11-Copy-22" fill="#9D796C" fill-rule="evenodd" stroke="none" />
          <path d="M2.49836 0.000244141C2.49836 0.000244141 -0.89799 15.8654 0.229056 16.1472C1.3561 16.429 6.49836 1.00024 6.49836 1.00024L2.49836 0.000244141Z" transform="matrix(0.94551855 0.32556814 -0.32556814 0.94551855 10.608398 216.22937)" id="Path-11-Copy-11" fill="#9D796C" fill-rule="evenodd" stroke="none" />
          <path d="M2.49836 -0.000183135C2.49836 -0.000183135 -0.89799 15.865 0.229056 16.1468C1.3561 16.4285 6.49836 0.999817 6.49836 0.999817L2.49836 -0.000183135Z" transform="matrix(0.7547096 -0.656059 0.656059 0.7547096 63.211426 430.53528)" id="Path-11-Copy-5" fill="#9D796C" fill-rule="evenodd" stroke="none" />
          <path d="M6.59191 0C6.59191 0 -1.01307 12.6037 0.113974 12.8855C1.24102 13.1673 11.3962 0.926221 11.3962 0.926221L6.59191 0Z" transform="matrix(0.9986295 0.05233596 -0.05233596 0.9986295 1.3049316 112.3103)" id="Path-11-Copy-24" fill="#9D796C" fill-rule="evenodd" stroke="none" />
          <path d="M2.49836 -6.10651e-05C2.49836 -6.10651e-05 -0.89799 15.8651 0.229056 16.1469C1.3561 16.4287 6.49836 0.999939 6.49836 0.999939L2.49836 -6.10651e-05Z" transform="matrix(0.7547096 -0.656059 0.656059 0.7547096 43.21167 291.53455)" id="Path-11-Copy-12" fill="#9D796C" fill-rule="evenodd" stroke="none" />
          <path d="M2.49836 0.00012204C2.49836 0.00012204 -0.89799 15.8653 0.229056 16.1471C1.3561 16.4288 6.49836 1.00012 6.49836 1.00012L2.49836 0.00012204Z" transform="matrix(0.7547096 -0.656059 0.656059 0.7547096 49.179443 19.214844)" id="Path-11-Copy-25" fill="#9D796C" fill-rule="evenodd" stroke="none" />
          <path d="M2.25672 0.00012207C2.25672 0.00012207 -0.882532 10.0702 0.244514 10.352C1.37156 10.6338 6.25672 1.00012 6.25672 1.00012L2.25672 0.00012207Z" transform="matrix(0.98162717 -0.190809 0.190809 0.98162717 39.226807 423.46448)" id="Path-11-Copy-6" fill="#9D796C" fill-rule="evenodd" stroke="none" />
          <path d="M2.25623 0C2.25623 0 -0.88302 10.0701 0.244026 10.3519C1.37107 10.6336 6.25623 1 6.25623 1L2.25623 0Z" transform="matrix(0.98162717 -0.190809 0.190809 0.98162717 31.227295 76.46423)" id="Path-11-Copy-26" fill="#9D796C" fill-rule="evenodd" stroke="none" />
          <path d="M2.25672 0C2.25672 0 -0.882532 10.0701 0.244514 10.3519C1.37156 10.6336 6.25672 1 6.25672 1L2.25672 0Z" transform="matrix(0.98162717 -0.190809 0.190809 0.98162717 19.226562 284.46448)" id="Path-11-Copy-13" fill="#9D796C" fill-rule="evenodd" stroke="none" />
          <path d="M1.63662 -5.6393e-07C1.63662 -5.6393e-07 -0.64033 7.30405 0.177138 7.50842C0.994606 7.71278 4.5379 0.725318 4.5379 0.725318L1.63662 -5.6393e-07Z" transform="matrix(0.89100546 0.45399055 -0.45399055 0.89100546 19.214111 22.683594)" id="Path-11-Copy-27" fill="#9D796C" fill-rule="evenodd" stroke="none" />
          <path d="M1.85664 -6.43155e-07C1.85664 -6.43155e-07 -0.726617 8.2866 0.200818 8.51846C1.12825 8.75032 5.1482 0.822888 5.1482 0.822888L1.85664 -6.43155e-07Z" transform="matrix(0.91354436 0.40673673 -0.40673673 0.91354436 35.680664 401.28943)" id="Path-11-Copy-7" fill="#9D796C" fill-rule="evenodd" stroke="none" />
          <path d="M1.85663 -3.05343e-05C1.85663 -3.05343e-05 -0.726619 8.28656 0.200815 8.51842C1.12825 8.75028 5.14819 0.822859 5.14819 0.822859L1.85663 -3.05343e-05Z" transform="matrix(0.92050487 -0.39073113 0.39073113 0.92050487 38.23047 130.97534)" id="Path-11-Copy-28" fill="#9D796C" fill-rule="evenodd" stroke="none" />
          <path d="M1.85688 -6.43155e-07C1.85688 -6.43155e-07 -0.726373 8.2866 0.201062 8.51846C1.1285 8.75032 5.14844 0.822888 5.14844 0.822888L1.85688 -6.43155e-07Z" transform="matrix(0.91354436 0.40673673 -0.40673673 0.91354436 10.573975 262.84558)" id="Path-11-Copy-14" fill="#9D796C" fill-rule="evenodd" stroke="none" />
          <path d="M1.85688 -6.43155e-07C1.85688 -6.43155e-07 -0.726373 8.2866 0.201062 8.51846C1.1285 8.75032 5.14844 0.822888 5.14844 0.822888L1.85688 -6.43155e-07Z" transform="matrix(0.91354436 0.40673673 -0.40673673 0.91354436 26.285889 176.56458)" id="Path-11-Copy-21" fill="#9D796C" fill-rule="evenodd" stroke="none" />
          <path d="M-1.71002e-09 0.525467C-1.71002e-09 0.525467 1.11844 10.5315 2.04587 10.7634C2.97331 10.9952 3.11831 1.0148e-08 3.11831 1.0148e-08L-1.71002e-09 0.525467Z" transform="matrix(0.99254614 0.12186935 -0.12186935 0.99254614 15.239502 137.6427)" id="Path-11-Copy-35" fill="#9D796C" fill-rule="evenodd" stroke="none" />
          <path d="M1.85664 0.000243497C1.85664 0.000243497 -0.726617 8.28684 0.200818 8.5187C1.12825 8.75056 5.1482 0.823133 5.1482 0.823133L1.85664 0.000243497Z" transform="matrix(0.91354436 0.40673673 -0.40673673 0.91354436 14.809814 88.28638)" id="Path-11-Copy-23" fill="#9D796C" fill-rule="evenodd" stroke="none" />
          <path d="M3.17014 0.000243043C3.17014 0.000243043 -1.24033 11.0557 0.343113 11.365C1.92655 11.6743 8.78993 1.09809 8.78993 1.09809L3.17014 0.000243043Z" transform="matrix(0.91354436 0.40673673 -0.40673673 0.91354436 5.517578 3.6900635)" id="Path-11-Copy-29" fill="#9D796C" fill-rule="evenodd" stroke="none" />
          <path d="M1.67749 -1.47394e-07C1.67749 -1.47394e-07 -0.603156 10.6535 0.153655 10.8427C0.910466 11.0319 4.36349 0.671499 4.36349 0.671499L1.67749 -1.47394e-07Z" transform="matrix(0.9612606 0.2756374 -0.2756374 0.9612606 27.189941 378.141)" id="Path-11-Copy-2" fill="#9D796C" fill-rule="evenodd" stroke="none" />
          <path d="M1.67725 -0.000244288C1.67725 -0.000244288 -0.6034 10.6532 0.153411 10.8424C0.910221 11.0316 4.36325 0.671255 4.36325 0.671255L1.67725 -0.000244288Z" transform="matrix(0.9612606 0.2756374 -0.2756374 0.9612606 2.9892578 170.28064)" id="Path-11-Copy-30" fill="#9D796C" fill-rule="evenodd" stroke="none" />
          <path d="M1.67774 -9.15232e-05C1.67774 -9.15232e-05 -0.602912 10.6534 0.153898 10.8426C0.910708 11.0318 4.36373 0.671408 4.36373 0.671408L1.67774 -9.15232e-05Z" transform="matrix(0.7880108 -0.6156615 0.6156615 0.7880108 42.19873 324.95715)" id="Path-11-Copy-15" fill="#9D796C" fill-rule="evenodd" stroke="none" />
          <path d="M1.67749 -0.000305146C1.67749 -0.000305146 -0.603157 10.6532 0.153654 10.8424C0.910464 11.0316 4.36349 0.671194 4.36349 0.671194L1.67749 -0.000305146Z" transform="matrix(0.7880108 -0.6156615 0.6156615 0.7880108 48.168213 52.637207)" id="Path-11-Copy-31" fill="#9D796C" fill-rule="evenodd" stroke="none" />
          <path d="M0.330973 -3.21238e-08C0.330973 -3.21238e-08 -0.418898 7.09091 0.337912 7.28011C1.09472 7.46931 2.80477 1.37125 2.80477 1.37125L0.330973 -3.21238e-08Z" transform="matrix(0.9612606 0.2756374 -0.2756374 0.9612606 50.32788 446.3717)" id="Path-11-Copy-8" fill="#9D796C" fill-rule="evenodd" stroke="none" />
          <path d="M0.330973 -3.21238e-08C0.330973 -3.21238e-08 -0.418898 7.09091 0.337912 7.28011C1.09472 7.46931 2.80477 1.37125 2.80477 1.37125L0.330973 -3.21238e-08Z" transform="matrix(0.9612606 0.2756374 -0.2756374 0.9612606 35.21997 300.28308)" id="Path-11-Copy-16" fill="#9D796C" fill-rule="evenodd" stroke="none" />
          <path d="M0.331217 -3.21238e-08C0.331217 -3.21238e-08 -0.418654 7.09091 0.338156 7.28011C1.09497 7.46931 2.80502 1.37125 2.80502 1.37125L0.331217 -3.21238e-08Z" transform="matrix(0.9612606 0.2756374 -0.2756374 0.9612606 41.187256 27.963135)" id="Path-11-Copy-32" fill="#9D796C" fill-rule="evenodd" stroke="none" />
          <path d="M0.330973 -0.000244141C0.330973 -0.000244141 -0.418899 7.09066 0.337911 7.27986C1.09472 7.46907 2.80477 1.371 2.80477 1.371L0.330973 -0.000244141Z" transform="matrix(0.32556814 -0.94551855 0.94551855 0.32556814 62.18628 410.99377)" id="Path-11-Copy-9" fill="#9D796C" fill-rule="evenodd" stroke="none" />
          <path d="M0.330973 -0.000244141C0.330973 -0.000244141 -0.418899 7.09066 0.337911 7.27986C1.09472 7.46907 2.80477 1.371 2.80477 1.371L0.330973 -0.000244141Z" transform="matrix(0.32556814 -0.94551855 0.94551855 0.32556814 42.185303 167.86023)" id="Path-11-Copy-33" fill="#9D796C" fill-rule="evenodd" stroke="none" />
          <path d="M0.331217 0C0.331217 0 -0.418655 7.0909 0.338156 7.28011C1.09497 7.46931 2.80502 1.37125 2.80502 1.37125L0.331217 0Z" transform="matrix(0.32556814 -0.94551855 0.94551855 0.32556814 45.89868 267.7245)" id="Path-11-Copy-17" fill="#9D796C" fill-rule="evenodd" stroke="none" />
          <path d="M0.331217 -3.83391e-09C0.331217 -3.83391e-09 -0.418655 7.0909 0.338156 7.28011C1.09497 7.46931 2.80502 1.37125 2.80502 1.37125L0.331217 -3.83391e-09Z" transform="matrix(0.7431448 -0.6691306 0.6691306 0.7431448 29.615479 1.876831)" id="Path-11-Copy-34" fill="#9D796C" fill-rule="evenodd" stroke="none" />
          <path d="M2.53882 -0.000122097C2.53882 -0.000122097 -0.640597 14.0497 0.116214 14.2389C0.873024 14.4281 5.22482 0.671377 5.22482 0.671377L2.53882 -0.000122097Z" transform="matrix(0.7431448 -0.6691306 0.6691306 0.7431448 49.195557 381.76746)" id="Path-11-Copy-3" fill="#9D796C" fill-rule="evenodd" stroke="none" />
          <path d="M2.53858 6.10088e-05C2.53858 6.10088e-05 -0.640841 14.0499 0.115969 14.2391C0.87278 14.4283 5.22457 0.67156 5.22457 0.67156L2.53858 6.10088e-05Z" transform="matrix(0.7431448 -0.6691306 0.6691306 0.7431448 29.195068 242.76746)" id="Path-11-Copy-18" fill="#9D796C" fill-rule="evenodd" stroke="none" />
          <path d="M2.177 -0.000122093C2.177 -0.000122093 -0.54903 7.47271 0.0998581 7.57334C0.748747 7.67397 4.47997 0.357035 4.47997 0.357035L2.177 -0.000122093Z" transform="matrix(0.7431448 -0.6691306 0.6691306 0.7431448 54.191406 358.26965)" id="Path-11-Copy-4" fill="#9D796C" fill-rule="evenodd" stroke="none" />
          <path d="M2.17724 6.10125e-05C2.17724 6.10125e-05 -0.548786 7.47289 0.100102 7.57353C0.748991 7.67416 4.48021 0.357218 4.48021 0.357218L2.17724 6.10125e-05Z" transform="matrix(0.7431448 -0.6691306 0.6691306 0.7431448 43.055176 223.59094)" id="Path-11-Copy-19" fill="#9D796C" fill-rule="evenodd" stroke="none" />
        </g>
      </g>
      <path d="M64.6359 5.04059C42.9153 21.515 14.3512 157.517 10.3714 165.477C6.39156 173.437 -3.22332 180.445 1.08915 212.283C5.40163 244.122 20.3523 268.775 23.3371 265.79C26.322 262.805 6.39155 224.179 10.3714 224.179C14.3512 224.179 28.1542 272.789 35.1189 276.769C42.0836 280.748 16.3412 220.2 20.321 220.2C24.3008 220.2 39.026 278.333 44.9958 278.333C50.9655 278.333 26.2908 213.235 29.2756 218.21C32.2605 223.185 47.3405 268.705 54.3052 270.695C61.2699 272.685 32.2605 211.245 36.2404 197.316C40.2202 183.386 49.5109 185.901 49.5109 185.901C49.5109 185.901 49.5109 185.901 56.4535 185.988C54.0383 176.494 39.2252 173.437 39.2252 165.477C39.2252 157.517 72.5978 34.9854 106.518 17.7488C106.518 17.7488 86.3564 -11.4338 64.6359 5.04059Z" transform="matrix(0.98768836 -0.15643448 0.15643448 0.98768836 39.443848 84.663086)" id="hand_left" fill="#E1B2A1" fill-rule="evenodd" stroke="none" />
      <g id="underwear" transform="translate(181.44409 117)">
        <path d="M13 0L0 116C0 116 36.3962 127 67.4661 130C98.536 133 137.595 130 137.595 130C137.595 130 158.013 70.5 215.714 72.5C273.415 74.5 290.282 136 290.282 136C290.282 136 321.352 145 353.309 145C385.267 145 419 130 419 130L406 0L13 0Z" id="Mask" fill="#FFFFFF" fill-rule="evenodd" stroke="none" />
        <g clip-path="url(#mask_3)">
          <g id="Group-2" transform="translate(0 -17.680054)">
            <path d="M12.541 35.6801C7.54097 35.6801 -5.45903 4.68005 2.54097 1.68005C10.541 -1.31995 12.541 7.68005 12.541 7.68005C12.541 7.68005 20.541 -4.31995 26.541 1.68005C32.541 7.68005 17.541 35.6801 12.541 35.6801Z" transform="translate(0 36)" id="Path-10" fill="#FFB7CD" fill-rule="evenodd" stroke="none" />
            <path d="M12.541 35.6801C7.54097 35.6801 -5.45903 4.68005 2.54097 1.68005C10.541 -1.31995 12.541 7.68005 12.541 7.68005C12.541 7.68005 20.541 -4.31995 26.541 1.68005C32.541 7.68005 17.541 35.6801 12.541 35.6801Z" transform="translate(44 81)" id="Path-10-Copy" fill="#FFB7CD" fill-rule="evenodd" stroke="none" />
            <path d="M12.541 35.6801C7.54097 35.6801 -5.45903 4.68005 2.54097 1.68005C10.541 -1.31995 12.541 7.68005 12.541 7.68005C12.541 7.68005 20.541 -4.31995 26.541 1.68005C32.541 7.68005 17.541 35.6801 12.541 35.6801Z" transform="translate(72 18)" id="Path-10-Copy-2" fill="#FFB7CD" fill-rule="evenodd" stroke="none" />
            <path d="M12.541 35.6801C7.54097 35.6801 -5.45903 4.68005 2.54097 1.68005C10.541 -1.31995 12.541 7.68005 12.541 7.68005C12.541 7.68005 20.541 -4.31995 26.541 1.68005C32.541 7.68005 17.541 35.6801 12.541 35.6801Z" transform="translate(144 45)" id="Path-10-Copy-3" fill="#FFB7CD" fill-rule="evenodd" stroke="none" />
            <path d="M12.541 35.6801C7.54097 35.6801 -5.45903 4.68005 2.54097 1.68005C10.541 -1.31995 12.541 7.68005 12.541 7.68005C12.541 7.68005 20.541 -4.31995 26.541 1.68005C32.541 7.68005 17.541 35.6801 12.541 35.6801Z" transform="translate(292 68)" id="Path-10-Copy-5" fill="#FFB7CD" fill-rule="evenodd" stroke="none" />
            <path d="M12.541 35.6801C7.54097 35.6801 -5.45903 4.68005 2.54097 1.68005C10.541 -1.31995 12.541 7.68005 12.541 7.68005C12.541 7.68005 20.541 -4.31995 26.541 1.68005C32.541 7.68005 17.541 35.6801 12.541 35.6801Z" transform="translate(337 0)" id="Path-10-Copy-6" fill="#FFB7CD" fill-rule="evenodd" stroke="none" />
            <path d="M12.541 35.6801C7.54097 35.6801 -5.45903 4.68005 2.54097 1.68005C10.541 -1.31995 12.541 7.68005 12.541 7.68005C12.541 7.68005 20.541 -4.31995 26.541 1.68005C32.541 7.68005 17.541 35.6801 12.541 35.6801Z" transform="translate(415 44)" id="Path-10-Copy-7" fill="#FFB7CD" fill-rule="evenodd" stroke="none" />
            <path d="M8.0807 22.9902C4.85898 22.9902 -3.51749 3.01554 1.63726 1.08251C6.79201 -0.85052 8.0807 4.94857 8.0807 4.94857C8.0807 4.94857 13.2354 -2.78355 17.1015 1.08251C20.9676 4.94857 11.3024 22.9902 8.0807 22.9902Z" transform="translate(228 21.88623)" id="Path-10-Copy-4" fill="#FFB7CD" fill-rule="evenodd" stroke="none" />
            <path d="M8.0807 22.9902C4.85898 22.9902 -3.51749 3.01554 1.63726 1.08251C6.79201 -0.85052 8.0807 4.94857 8.0807 4.94857C8.0807 4.94857 13.2354 -2.78355 17.1015 1.08251C20.9676 4.94857 11.3024 22.9902 8.0807 22.9902Z" transform="translate(297 138.88623)" id="Path-10-Copy-10" fill="#FFB7CD" fill-rule="evenodd" stroke="none" />
            <path d="M8.0807 22.9902C4.85898 22.9902 -3.51749 3.01554 1.63726 1.08251C6.79201 -0.85052 8.0807 4.94857 8.0807 4.94857C8.0807 4.94857 13.2354 -2.78355 17.1015 1.08251C20.9676 4.94857 11.3024 22.9902 8.0807 22.9902Z" transform="translate(115 126.88623)" id="Path-10-Copy-8" fill="#FFB7CD" fill-rule="evenodd" stroke="none" />
            <path d="M8.0807 22.9902C4.85898 22.9902 -3.51749 3.01554 1.63726 1.08251C6.79201 -0.85052 8.0807 4.94857 8.0807 4.94857C8.0807 4.94857 13.2354 -2.78355 17.1015 1.08251C20.9676 4.94857 11.3024 22.9902 8.0807 22.9902Z" transform="translate(365 114.88623)" id="Path-10-Copy-9" fill="#FFB7CD" fill-rule="evenodd" stroke="none" />
          </g>
          <path d="M84.5 195.443C140.557 195.443 201 172.443 201 102.443C201 53.9691 180.639 20.5291 147 4.44285C132.061 -2.70073 128.5 17.4429 100.5 17.4429C65.5 17.4429 65.9052 -3.25707 56 0.442854C18.2312 14.5508 0 51.939 0 97.4429C0 154.88 28.4431 195.443 84.5 195.443Z" transform="translate(118 41)" id="Oval-2" fill="#000000" fill-opacity="0.101960786" fill-rule="evenodd" stroke="none" />
        </g>
      </g>
      <g id="tickets" transform="matrix(0.97437006 0.22495104 -0.22495104 0.97437006 622.97144 156.6167)">
        <g id="Group-6-Copy" transform="matrix(0.98768836 0.15643449 -0.15643449 0.98768836 10.637207 6.1035156E-05)">
          <path d="M133.797 5.44009C136.533 5.44009 138.752 3.20749 138.752 0.453427C138.752 0.300582 138.745 0.149343 138.732 2.83942e-06L177.501 1.32272e-05Q177.611 1.32568e-05 177.722 0.00543253Q177.832 0.0108518 177.942 0.0216773Q178.052 0.0325027 178.161 0.0487083Q178.27 0.0649139 178.379 0.0864605Q178.487 0.108007 178.594 0.134843Q178.701 0.161679 178.807 0.193739Q178.913 0.225799 179.017 0.263007Q179.121 0.300214 179.223 0.34248Q179.325 0.384745 179.425 0.431966Q179.524 0.479187 179.622 0.53125Q179.719 0.583313 179.814 0.640093Q179.909 0.696873 180 0.758232Q180.092 0.819592 180.181 0.885383Q180.27 0.951175 180.355 1.02124Q180.44 1.09131 180.522 1.16548Q180.604 1.23964 180.682 1.31774Q180.76 1.39584 180.835 1.47767Q180.909 1.5595 180.979 1.64488Q181.049 1.73025 181.115 1.81896Q181.18 1.90767 181.242 1.9995Q181.303 2.09133 181.36 2.18607Q181.417 2.2808 181.469 2.3782Q181.521 2.4756 181.568 2.57544Q181.615 2.67528 181.658 2.77732Q181.7 2.87936 181.737 2.98335Q181.774 3.08734 181.806 3.19302Q181.838 3.29871 181.865 3.40585Q181.892 3.51298 181.914 3.6213Q181.935 3.72962 181.951 3.83887Q181.968 3.94812 181.978 4.05804Q181.989 4.16795 181.995 4.27826Q182 4.38857 182 4.49901L182 63.501Q182 63.6115 181.995 63.7218Q181.989 63.8321 181.978 63.942Q181.967 64.0519 181.951 64.1612Q181.935 64.2704 181.914 64.3787Q181.892 64.487 181.865 64.5942Q181.838 64.7013 181.806 64.807Q181.774 64.9127 181.737 65.0167Q181.7 65.1207 181.658 65.2227Q181.615 65.3247 181.568 65.4246Q181.521 65.5244 181.469 65.6218Q181.417 65.7192 181.36 65.814Q181.303 65.9087 181.242 66.0005Q181.18 66.0924 181.115 66.1811Q181.049 66.2698 180.979 66.3551Q180.909 66.4405 180.835 66.5224Q180.76 66.6042 180.682 66.6823Q180.604 66.7604 180.522 66.8345Q180.44 66.9087 180.355 66.9788Q180.27 67.0489 180.181 67.1146Q180.092 67.1804 180 67.2418Q179.909 67.3032 179.814 67.3599Q179.719 67.4167 179.622 67.4688Q179.524 67.5208 179.425 67.5681Q179.325 67.6153 179.223 67.6575Q179.121 67.6998 179.017 67.737Q178.913 67.7742 178.807 67.8063Q178.701 67.8383 178.594 67.8652Q178.487 67.892 178.379 67.9136Q178.27 67.9351 178.161 67.9513Q178.052 67.9675 177.942 67.9784Q177.832 67.9892 177.722 67.9946Q177.611 68 177.501 68L138.732 68C138.745 67.8507 138.752 67.6996 138.752 67.5468C138.752 64.7927 136.533 62.5601 133.797 62.5601C131.06 62.5601 128.841 64.7927 128.841 67.5468C128.841 67.6996 128.848 67.8507 128.861 68L4.49898 68Q4.05587 68 3.62127 67.9135Q3.18667 67.8271 2.77729 67.6575Q2.3679 67.4879 1.99947 67.2417Q1.63103 66.9956 1.31771 66.6822Q1.00438 66.3689 0.758199 66.0005Q0.51202 65.632 0.342448 65.2227Q0.172876 64.8133 0.0864296 64.3787Q-1.71331e-05 63.9441 -1.70144e-05 63.501L0 4.49897Q0 4.05585 0.086447 3.62125Q0.172894 3.18666 0.342466 2.77727Q0.512038 2.36789 0.758218 1.99946Q1.0044 1.63102 1.31773 1.31769Q1.63105 1.00436 1.99949 0.758184Q2.36792 0.512004 2.77731 0.342432Q3.18669 0.172861 3.62129 0.0864137Q4.05589 -3.32455e-05 4.499 -3.31268e-05L128.861 0C128.848 0.14934 128.841 0.300579 128.841 0.453424C128.841 3.20748 131.06 5.44009 133.797 5.44009Z" transform="matrix(0.9999996 -4.0276305E-07 4.0276305E-07 0.9999996 0.00024414062 -0.00018310547)" id="Combined-Shape" fill="#663244" fill-rule="evenodd" stroke="none" />
        </g>
        <g id="Group-6" transform="matrix(0.9659258 0.25881904 -0.25881904 0.9659258 20.099121 0.4239502)">
          <path d="M133.798 5.44007C136.535 5.44007 138.753 3.20746 138.753 0.453403C138.753 0.300565 138.747 0.149333 138.733 0L177.501 0Q177.611 0 177.722 0.00541924Q177.832 0.0108385 177.942 0.0216639Q178.052 0.0324893 178.161 0.0486949Q178.27 0.0649004 178.379 0.086447Q178.487 0.107994 178.594 0.134829Q178.701 0.161665 178.807 0.193725Q178.913 0.225786 179.017 0.262993Q179.121 0.300201 179.223 0.342466Q179.325 0.384731 179.425 0.431952Q179.524 0.479173 179.622 0.531236Q179.719 0.583299 179.814 0.640079Q179.909 0.696859 180 0.758218Q180.092 0.819578 180.181 0.885369Q180.27 0.951161 180.355 1.02123Q180.44 1.09129 180.522 1.16546Q180.604 1.23963 180.682 1.31773Q180.76 1.39582 180.835 1.47766Q180.909 1.55949 180.979 1.64486Q181.049 1.73024 181.115 1.81895Q181.18 1.90766 181.242 1.99949Q181.303 2.09132 181.36 2.18605Q181.417 2.28078 181.469 2.37819Q181.521 2.47559 181.568 2.57543Q181.615 2.67527 181.658 2.77731Q181.7 2.87934 181.737 2.98333Q181.774 3.08732 181.806 3.19301Q181.838 3.2987 181.865 3.40583Q181.892 3.51297 181.914 3.62129Q181.935 3.72961 181.951 3.83886Q181.967 3.94811 181.978 4.05802Q181.989 4.16793 181.995 4.27824Q182 4.38856 182 4.499L182 63.501Q182 63.6114 181.995 63.7218Q181.989 63.8321 181.978 63.942Q181.967 64.0519 181.951 64.1611Q181.935 64.2704 181.914 64.3787Q181.892 64.487 181.865 64.5942Q181.838 64.7013 181.806 64.807Q181.774 64.9127 181.737 65.0167Q181.7 65.1207 181.658 65.2227Q181.615 65.3247 181.568 65.4246Q181.521 65.5244 181.469 65.6218Q181.417 65.7192 181.36 65.8139Q181.303 65.9087 181.242 66.0005Q181.18 66.0923 181.115 66.181Q181.049 66.2697 180.979 66.3551Q180.909 66.4405 180.835 66.5223Q180.76 66.6042 180.682 66.6823Q180.604 66.7604 180.522 66.8345Q180.44 66.9087 180.355 66.9788Q180.27 67.0488 180.181 67.1146Q180.092 67.1804 180 67.2418Q179.909 67.3031 179.814 67.3599Q179.719 67.4167 179.622 67.4688Q179.524 67.5208 179.425 67.568Q179.325 67.6153 179.223 67.6575Q179.121 67.6998 179.017 67.737Q178.913 67.7742 178.807 67.8063Q178.701 67.8383 178.594 67.8652Q178.487 67.892 178.379 67.9135Q178.27 67.9351 178.161 67.9513Q178.052 67.9675 177.942 67.9783Q177.832 67.9892 177.722 67.9946Q177.611 68 177.501 68L138.733 68C138.746 67.8507 138.753 67.6995 138.753 67.5468C138.753 64.7927 136.534 62.5601 133.797 62.5601C131.061 62.5601 128.842 64.7927 128.842 67.5468C128.842 67.6995 128.849 67.8507 128.862 68L4.499 68Q4.38856 68 4.27824 67.9946Q4.16793 67.9892 4.05802 67.9783Q3.94811 67.9675 3.83886 67.9513Q3.72961 67.9351 3.62129 67.9135Q3.51297 67.892 3.40583 67.8652Q3.2987 67.8383 3.19301 67.8063Q3.08732 67.7742 2.98333 67.737Q2.87934 67.6998 2.77731 67.6575Q2.67527 67.6153 2.57543 67.568Q2.47559 67.5208 2.37819 67.4688Q2.28078 67.4167 2.18605 67.3599Q2.09132 67.3031 1.99949 67.2418Q1.90766 67.1804 1.81895 67.1146Q1.73024 67.0488 1.64486 66.9788Q1.55949 66.9087 1.47766 66.8345Q1.39582 66.7604 1.31773 66.6823Q1.23963 66.6042 1.16546 66.5223Q1.09129 66.4405 1.02123 66.3551Q0.951161 66.2698 0.885369 66.181Q0.819578 66.0923 0.758218 66.0005Q0.696859 65.9087 0.640079 65.8139Q0.583299 65.7192 0.531236 65.6218Q0.479173 65.5244 0.431952 65.4246Q0.384731 65.3247 0.342466 65.2227Q0.300201 65.1206 0.262993 65.0167Q0.225786 64.9127 0.193725 64.807Q0.161665 64.7013 0.134829 64.5942Q0.107994 64.487 0.086447 64.3787Q0.0649004 64.2704 0.0486949 64.1611Q0.0324893 64.0519 0.0216639 63.942Q0.0108385 63.8321 0.00541924 63.7218Q0 63.6114 0 63.501L0 4.499Q0 4.38856 0.00541924 4.27824Q0.0108385 4.16793 0.0216639 4.05802Q0.0324893 3.94811 0.0486949 3.83886Q0.0649004 3.72961 0.086447 3.62129Q0.107994 3.51297 0.134829 3.40583Q0.161665 3.2987 0.193725 3.19301Q0.225786 3.08732 0.262993 2.98333Q0.300201 2.87934 0.342466 2.77731Q0.384731 2.67527 0.431952 2.57543Q0.479173 2.47559 0.531236 2.37819Q0.583299 2.28078 0.640079 2.18605Q0.696859 2.09132 0.758218 1.99949Q0.819578 1.90766 0.885369 1.81895Q0.951161 1.73024 1.02123 1.64486Q1.09129 1.55949 1.16546 1.47766Q1.23963 1.39582 1.31773 1.31773Q1.39582 1.23963 1.47766 1.16546Q1.55949 1.09129 1.64486 1.02123Q1.73024 0.951161 1.81895 0.885369Q1.90766 0.819578 1.99949 0.758218Q2.09132 0.696859 2.18605 0.640079Q2.28078 0.583299 2.37819 0.531236Q2.47559 0.479173 2.57543 0.431952Q2.67527 0.384731 2.77731 0.342466Q2.87934 0.300201 2.98333 0.262993Q3.08732 0.225786 3.19301 0.193725Q3.2987 0.161665 3.40583 0.134829Q3.51297 0.107994 3.62129 0.086447Q3.72961 0.0649004 3.83886 0.0486949Q3.94811 0.0324893 4.05802 0.0216639Q4.16793 0.0108385 4.27824 0.00541924Q4.38856 0 4.499 0L128.863 0C128.849 0.149333 128.843 0.300565 128.843 0.453403C128.843 3.20746 131.061 5.44007 133.798 5.44007Z" transform="matrix(1 1.6687967E-09 -1.6687967E-09 1 0.00024414062 -9.1552734E-05)" id="Combined-Shape" fill="#7F4156" fill-rule="evenodd" stroke="none" />
          <path d="M5.7651 14.6922C5.7247 14.7337 5.66697 14.8056 5.6013 14.8915C4.14151 14.8256 2.51791 14.8174 1.4117 14.7078C0.921734 14.6589 0.548668 14.7974 0.196528 15.1581L0.154675 15.2011C0.00891194 15.3515 -0.0733503 15.4988 0.0882878 15.6307L3.86081 17.9675C3.61691 18.6067 3.52165 19.1541 3.75545 19.3941C3.77349 19.4126 3.7937 19.4296 3.81462 19.4437C3.82833 19.4652 3.84493 19.4859 3.86297 19.5044C4.09677 19.7444 4.63003 19.6466 5.25277 19.3963L7.52941 23.2686C7.65786 23.4337 7.80218 23.35 7.94722 23.2004C7.94722 23.2004 7.98907 23.1575 7.98979 23.1575C8.34121 22.7968 8.47615 22.4131 8.42853 21.9109C8.32173 20.774 8.31379 19.1074 8.24957 17.6098C8.33327 17.5424 8.40327 17.4831 8.44368 17.4416L13.0071 12.7576L18.7907 22.1287C19.1407 22.5642 19.474 22.3938 19.7959 22.0635L19.8882 21.9687C20.0968 21.7546 20.1401 21.4087 19.9994 21.0821L17.367 8.28242L21.724 3.8102C22.1714 3.35024 23.2271 1.07932 22.5199 0.353459C22.5019 0.334942 22.4831 0.317906 22.4636 0.301611C22.4477 0.281613 22.4311 0.262356 22.4131 0.243839C21.7059 -0.482026 19.4928 0.601586 19.0461 1.06081L14.6884 5.53302L2.21773 2.83103C1.90022 2.6866 1.56396 2.73104 1.35469 2.94509L1.26233 3.0399C0.940496 3.37024 0.773807 3.71243 1.19883 4.07166L10.3285 10.0082L5.7651 14.6922Z" transform="matrix(0.70710665 0.7071069 -0.7071069 0.70710665 156.11914 17.2771)" id="Fill-1" fill="#FFFFFF" fill-rule="evenodd" stroke="none" />
        </g>
      </g>
      <path d="M64.6361 5.04058C42.9156 21.5149 14.3515 157.517 10.3717 165.477C6.39183 173.437 -3.22306 180.445 1.08943 212.283C5.40191 244.122 20.3525 268.775 23.3374 265.79C26.3223 262.805 6.39183 224.179 10.3717 224.179C14.3515 224.179 24.4855 266.318 36.3957 269.726C42.7693 271.55 33.033 259.57 26.6495 245.292C21.1041 232.889 18.4712 220.2 20.3213 220.2C24.3011 220.2 30.8661 262.792 46.8888 266.277C55.1259 268.069 44.9663 260.622 38.0424 245.741C31.4981 231.675 30.642 215.721 32.7182 218.233C36.991 223.405 44.1661 258.929 56.932 260.879C63.2261 261.841 54.4011 251.967 48.3851 237.195C42.1992 222.006 39.1699 203.73 38.7122 195.297C37.8096 178.663 42.8322 168.688 42.8322 168.688C42.8322 168.688 45.5303 167.039 52.6504 162.316C43.5803 154.147 40.4323 161.808 40.4323 153.848C40.4323 145.888 72.5981 34.9854 106.518 17.7488C106.518 17.7488 86.3567 -11.4338 64.6361 5.04058Z" transform="matrix(-0.97437006 0.2249511 0.2249511 0.97437006 675.2317 5.722046E-06)" id="hand_right" fill="#E1B2A1" fill-rule="evenodd" stroke="none" />
    </g>
  </g>
</svg>